HIERARCHY
ROOT Hips
{
	OFFSET 0.000000 0.000000 0.000000
	CHANNELS 6 Xposition Yposition Zposition Xrotation Yrotation Zrotation
	JOINT LeftUpLeg_virtual
	{
		OFFSET 0.000000 0.000000 0.000000
		CHANNELS 3 Xrotation Yrotation Zrotation
		JOINT LeftUpLeg
		{
			OFFSET 11.394100 -6.187798 -0.413800
			CHANNELS 3 Xrotation Yrotation Zrotation
			JOINT LeftLeg
			{
				OFFSET 0.430247 -32.302673 3.732800
				CHANNELS 3 Xrotation Yrotation Zrotation
				JOINT LeftFoot
				{
					OFFSET -0.430247 -48.264931 -6.423300
					CHANNELS 3 Xrotation Yrotation Zrotation
					JOINT LeftToeBase
					{
						OFFSET 4.230900 -16.068199 23.438400
						CHANNELS 3 Xrotation Yrotation Zrotation
						JOINT LeftToe_End
						{
							OFFSET 4.510700 0.695400 19.974600
							CHANNELS 3 Xrotation Yrotation Zrotation
							End Site
							{
								OFFSET 0 0 0
							}
						}
					}
				}
			}
		}
	}
	JOINT RightUpLeg_virtual
	{
		OFFSET 0.000000 0.000000 0.000000
		CHANNELS 3 Xrotation Yrotation Zrotation
		JOINT RightUpLeg
		{
			OFFSET -11.333700 -6.187798 -0.413800
			CHANNELS 3 Xrotation Yrotation Zrotation
			JOINT RightLeg
			{
				OFFSET -0.430392 -32.302628 3.733000
				CHANNELS 3 Xrotation Yrotation Zrotation
				JOINT RightFoot
				{
					OFFSET 0.430392 -48.264973 -6.423500
					CHANNELS 3 Xrotation Yrotation Zrotation
					JOINT RightToeBase
					{
						OFFSET -4.230900 -16.068199 23.438400
						CHANNELS 3 Xrotation Yrotation Zrotation
						JOINT RightToe_End
						{
							OFFSET -4.510700 0.695400 19.974600
							CHANNELS 3 Xrotation Yrotation Zrotation
							End Site
							{
								OFFSET 0 0 0
							}
						}
					}
				}
			}
		}
	}
	JOINT Spine_virtual
	{
		OFFSET 0.000000 0.000000 0.000000
		CHANNELS 3 Xrotation Yrotation Zrotation
		JOINT Spine
		{
			OFFSET -0.002400 12.777504 0.315300
			CHANNELS 3 Xrotation Yrotation Zrotation
			JOINT Spine1
			{
				OFFSET -0.002067 5.816869 0.032633
				CHANNELS 3 Xrotation Yrotation Zrotation
				JOINT Spine1_split
				{
					OFFSET -0.002067 5.816869 0.032633
					CHANNELS 3 Xrotation Yrotation Zrotation
					JOINT Spine2
					{
						OFFSET -0.002067 5.816869 0.032633
						CHANNELS 3 Xrotation Yrotation Zrotation
						JOINT Neck_virtual
						{
							OFFSET 0.000000 0.000000 0.000000
							CHANNELS 3 Xrotation Yrotation Zrotation
							JOINT Neck
							{
								OFFSET -0.003700 21.199493 -0.826900
								CHANNELS 3 Xrotation Yrotation Zrotation
								JOINT Head
								{
									OFFSET 0.000000 20.442200 4.834800
									CHANNELS 3 Xrotation Yrotation Zrotation
									JOINT HeadTop_End
									{
										OFFSET 0.000000 34.668396 4.968400
										CHANNELS 3 Xrotation Yrotation Zrotation
										End Site
										{
											OFFSET 0 0 0
										}
									}
								}
							}
						}
						JOINT LeftShoulder_virtual
						{
							OFFSET 0.000000 0.000000 0.000000
							CHANNELS 3 Xrotation Yrotation Zrotation
							JOINT LeftShoulder
							{
								OFFSET 3.288150 8.794197 -1.372250
								CHANNELS 3 Xrotation Yrotation Zrotation
								JOINT LeftShoulder_split
								{
									OFFSET 3.288150 8.794197 -1.372250
									CHANNELS 3 Xrotation Yrotation Zrotation
									JOINT LeftArm
									{
										OFFSET 11.953299 -2.279007 -0.146200
										CHANNELS 3 Xrotation Yrotation Zrotation
										JOINT LeftForeArm
										{
											OFFSET 18.448900 0.000000 0.000000
											CHANNELS 3 Xrotation Yrotation Zrotation
											JOINT LeftHand
											{
												OFFSET 29.527798 0.000000 0.000000
												CHANNELS 3 Xrotation Yrotation Zrotation
												End Site
												{
													OFFSET 0 0 0
												}
											}
										}
									}
								}
							}
						}
						JOINT RightShoulder_virtual
						{
							OFFSET 0.000000 0.000000 0.000000
							CHANNELS 3 Xrotation Yrotation Zrotation
							JOINT RightShoulder
							{
								OFFSET -3.249400 8.794197 -1.372250
								CHANNELS 3 Xrotation Yrotation Zrotation
								JOINT RightShoulder_split
								{
									OFFSET -3.249400 8.794197 -1.372250
									CHANNELS 3 Xrotation Yrotation Zrotation
									JOINT RightArm
									{
										OFFSET -11.953299 -2.279007 -0.146200
										CHANNELS 3 Xrotation Yrotation Zrotation
										JOINT RightForeArm
										{
											OFFSET -18.448900 0.000000 0.000000
											CHANNELS 3 Xrotation Yrotation Zrotation
											JOINT RightHand
											{
												OFFSET -29.527802 0.000000 0.000000
												CHANNELS 3 Xrotation Yrotation Zrotation
												End Site
												{
													OFFSET 0 0 0
												}
											}
										}
									}
								}
							}
						}
					}
				}
			}
		}
	}
}
MOTION
Frames: 8
Frame Time: 0.03333333
2.471606 95.305008 1.971111 0.000000 0.000000 0.000000 179.624973 49.953593 178.164528 -28.148874 -9.242511 9.405124 23.139470 -0.914233 0.941760 4.877031 -0.434744 -9.666003 -10.635375 2.328861 -3.806764 0.000000 0.000000 0.000000 176.261938 45.905292 -178.646658 -18.854295 -3.130259 -11.434420 42.979317 -3.918074 -2.850516 -11.538111 -8.139704 15.543859 3.591254 0.050890 0.332545 0.000000 0.000000 0.000000 177.840286 51.301718 -178.819735 5.571391 0.719276 8.488014 16.328653 0.587984 -0.576746 9.017699 13.498482 -1.269087 0.000000 0.000000 0.000000 17.159541 0.266365 -2.106512 -29.815517 -4.954571 -2.429846 -3.744389 -8.443981 6.452228 0.000000 0.000000 0.000000 19.535562 -0.124832 -1.376627 4.863268 -14.037254 -13.748197 -14.440270 -13.907326 -2.857663 21.678826 1.978602 -29.423833 46.060532 -74.552211 33.451022 0.000000 0.000000 0.000000 18.603229 1.161801 -1.047516 -0.167330 7.341758 -4.887391 9.356707 1.969774 -0.599419 -19.419688 -20.204029 67.069268 6.573699 57.881202 -8.241778 0.000000 0.000000 0.000000 
2.433677 94.537033 1.819920 0.000000 0.000000 0.000000 179.243439 50.190347 177.444435 -28.289450 -7.387705 10.122248 25.618226 -0.739511 0.946834 4.596616 -0.471496 -8.586310 -10.888132 2.420124 -4.062554 0.000000 0.000000 0.000000 175.497845 46.319768 -179.014054 -21.307436 -3.261038 -11.239167 42.808928 -4.281413 -2.124337 -11.260211 -7.553192 14.365612 4.061114 0.329444 0.639000 0.000000 0.000000 0.000000 176.661463 50.877642 -179.254367 6.184708 0.157234 8.428194 16.176381 0.337843 -0.673045 6.954828 12.015626 -3.420667 0.000000 0.000000 0.000000 16.419742 -0.020767 -1.894995 -27.609653 -5.242414 -3.167148 -2.345469 -8.193795 6.211543 0.000000 0.000000 0.000000 19.175635 -0.468609 -1.665687 4.496051 -15.504806 -13.507083 -11.301482 -12.268574 -2.716016 19.597250 2.018059 -28.730641 41.942266 -73.003883 29.188270 0.000000 0.000000 0.000000 18.853959 1.121257 -1.193871 -0.183485 8.906825 -4.071807 10.125060 -0.758497 0.278596 -20.353305 -20.151404 66.438978 5.767191 56.960602 -7.104061 0.000000 0.000000 0.000000 
2.136292 93.070366 1.236881 0.000000 0.000000 0.000000 176.303384 52.385174 178.654717 -30.420908 -5.116538 12.185891 30.692476 -0.513568 1.260075 3.575759 -0.073952 -8.957325 -11.705896 2.897503 -4.460163 0.000000 0.000000 0.000000 172.633933 48.560890 -178.000057 -27.446412 -2.266553 -10.413716 44.526714 -3.625975 -1.016020 -7.684659 -5.820880 14.698466 3.072983 0.725957 0.059050 0.000000 0.000000 0.000000 173.122674 52.353591 -178.133109 6.772904 -0.395325 8.080934 15.432107 0.125716 -0.630288 5.809420 8.931464 -2.703147 0.000000 0.000000 0.000000 14.930464 -0.384298 -1.516997 -24.241810 -5.687916 -3.443601 -0.528654 -9.983272 7.351148 0.000000 0.000000 0.000000 18.186567 -0.812807 -1.918220 3.701270 -17.066402 -12.625522 -9.383071 -9.779420 -3.323275 19.427066 -0.295740 -24.907907 37.082238 -69.945741 23.616779 0.000000 0.000000 0.000000 18.618933 1.080773 -1.154306 -0.246961 10.240259 -3.477137 9.306823 -3.445897 1.147780 -20.761207 -16.214336 63.889945 4.627716 51.952068 -5.036635 0.000000 0.000000 0.000000 
1.524220 91.305252 0.291977 0.000000 0.000000 0.000000 170.805423 56.281705 -178.040110 -33.918105 -2.390379 15.279184 36.973822 0.133980 1.668912 0.414281 0.957384 -10.279268 -13.320718 3.503768 -4.201340 0.000000 0.000000 0.000000 167.476088 52.085981 -174.880724 -35.658099 -0.282578 -8.601057 47.726251 -2.516359 0.047737 -3.496508 -3.555787 14.963910 1.495406 1.168389 -0.920986 0.000000 0.000000 0.000000 167.103638 55.025404 -174.637446 7.374361 -0.775642 7.431195 14.361699 0.019294 -0.556737 4.440372 6.089950 -0.512333 0.000000 0.000000 0.000000 13.159356 -0.673409 -1.167726 -20.853659 -6.221487 -3.005477 0.411174 -12.949197 9.368872 0.000000 0.000000 0.000000 16.906050 -1.001035 -2.148541 2.633466 -18.474446 -11.213309 -7.875133 -6.691681 -3.974975 21.069260 -2.392304 -19.533178 34.947394 -67.701914 20.357205 0.000000 0.000000 0.000000 17.934352 0.994758 -1.016653 -0.361552 10.651773 -3.620352 7.386794 -4.637712 1.763974 -19.753358 -10.059680 61.124927 4.116558 44.933677 -3.094035 0.000000 0.000000 0.000000 
1.037100 89.306267 -0.993107 0.000000 0.000000 0.000000 162.548913 60.114182 -171.861275 -38.441445 0.213540 19.009113 42.555996 0.838247 2.003430 -4.697031 2.310434 -12.798788 -14.246767 3.953459 -3.457859 0.000000 0.000000 0.000000 160.237823 56.280414 -169.658334 -44.791974 2.228046 -5.965578 51.816233 -1.900523 0.960436 -0.799475 -1.609856 13.102656 2.120196 1.584214 -1.500845 0.000000 0.000000 0.000000 158.398849 58.343770 -168.039756 7.964989 -0.846004 6.443839 13.290104 -0.010718 -0.556851 3.082704 4.390938 2.047145 0.000000 0.000000 0.000000 11.807642 -0.823820 -0.993881 -18.963517 -6.647492 -2.179354 -0.776578 -16.588352 11.656484 0.000000 0.000000 0.000000 15.629088 -0.983823 -2.377679 1.507972 -19.504420 -9.442776 -6.704211 -3.237577 -4.055563 22.794310 -1.551156 -15.089898 35.701751 -68.091064 19.998596 0.000000 0.000000 0.000000 17.110879 0.873847 -0.947535 -0.614720 9.815193 -4.747071 4.995188 -3.925364 2.187136 -17.627238 -5.101463 59.118777 4.225247 37.772015 -1.532864 0.000000 0.000000 0.000000 
0.656516 87.305695 -1.369274 0.000000 0.000000 0.000000 152.410303 62.318769 -163.105969 -44.610971 1.586630 23.154855 47.027700 0.731762 1.934191 -9.342988 3.454086 -17.637736 -13.502775 4.247153 -2.566789 0.000000 0.000000 0.000000 151.041096 59.839212 -161.760996 -53.956357 4.751588 -3.405674 56.023643 -2.053439 1.918786 0.428538 0.067417 9.159454 4.692628 1.885174 -1.463900 0.000000 0.000000 0.000000 147.512401 61.284856 -158.509334 8.680601 -0.610588 5.317627 12.465076 -0.002140 -0.730638 1.680424 1.939239 3.853752 0.000000 0.000000 0.000000 11.374101 -0.809354 -1.083183 -19.450234 -6.935039 -1.325782 -4.703963 -20.000343 13.306547 0.000000 0.000000 0.000000 14.778561 -0.864004 -2.680787 0.550990 -19.649484 -7.389186 -5.912026 0.302745 -4.453085 22.897861 2.985662 -13.486273 40.608996 -72.123417 24.144012 0.000000 0.000000 0.000000 16.492764 0.662454 -1.070160 -1.157691 7.601967 -6.767257 1.869815 -1.651757 3.010675 -15.204452 -4.743077 58.531409 4.791782 31.825465 -0.576205 0.000000 0.000000 0.000000 
0.287695 85.193291 -1.154934 0.000000 0.000000 0.000000 142.760707 62.726477 -154.115528 -51.727799 1.150499 27.471383 50.820405 -0.066670 1.329872 -11.198314 4.203009 -23.343061 -11.988805 4.475856 -1.467943 0.000000 0.000000 0.000000 141.616801 61.506741 -152.995582 -62.831101 7.343515 -1.513866 60.048578 -2.108713 2.794661 1.605735 2.450243 5.364413 6.388534 2.089977 -1.008301 0.000000 0.000000 0.000000 136.199327 62.915577 -147.732279 9.533198 -0.181992 4.130636 12.054388 -0.043805 -1.105257 -0.000502 -0.815020 3.601512 0.000000 0.000000 0.000000 11.905055 -0.697927 -1.452629 -22.358085 -6.991691 -0.768306 -11.036495 -22.987401 13.876697 0.000000 0.000000 0.000000 14.641168 -0.682056 -3.161875 -0.058307 -18.932465 -5.479261 -5.850876 2.749773 -6.162581 21.906814 10.999571 -15.442120 55.202169 -78.161591 38.512220 0.000000 0.000000 0.000000 16.267871 0.411140 -1.474990 -1.832274 4.793899 -8.980341 -2.216693 1.829858 4.389359 -13.724090 -11.747388 59.443321 5.046926 27.415549 0.070592 0.000000 0.000000 0.000000 
0.025853 82.643913 -0.379444 0.000000 0.000000 0.000000 135.819869 61.706340 -147.009959 -58.485469 -0.936815 30.880252 54.061917 -0.631110 0.000579 -11.063774 4.941407 -26.982543 -10.570637 4.688465 -0.540590 0.000000 0.000000 0.000000 134.099549 61.564320 -145.708535 -70.837135 9.846322 -1.085397 63.847386 -1.556778 3.510117 3.594076 5.912378 3.219009 5.090846 2.166579 -0.666794 0.000000 0.000000 0.000000 126.261825 63.371581 -137.711299 10.369360 0.296650 3.046783 12.176405 -0.284233 -1.581068 -1.173702 -1.931313 3.236821 0.000000 0.000000 0.000000 13.212034 -0.662850 -2.015920 -27.008945 -6.960328 -0.865962 -18.693801 -25.310649 13.541612 0.000000 0.000000 0.000000 15.260277 -0.593527 -3.748411 -0.198183 -17.703560 -4.065952 -6.868588 2.081664 -9.474767 22.144260 21.465780 -21.204158 92.064694 -82.044704 75.710974 0.000000 0.000000 0.000000 16.628241 0.201188 -2.060738 -2.623114 2.059834 -10.415555 -5.173609 5.533660 6.429619 -14.286037 -25.387799 60.036789 4.549732 25.245107 0.468912 0.000000 0.000000 0.000000 
